<svg viewBox="0 0 128 128" xmlns="http://www.w3.org/2000/svg"><path d="M115.3 36.1L72.5 6.6c-5.1-3.5-11.9-3.5-17 0L12.7 36.1C7.2 39.8 4 46 4 52.6v56.2c0 8.3 6.7 15 15 15h90c8.3 0 15-6.7 15-15V52.6c0-6.6-3.2-12.8-8.7-16.5z" fill="#61BDA7"/><path d="M109 125H19c-9 0-16.2-7.3-16.2-16.2V52.6c0-7 3.4-13.5 9.2-17.5L54.8 5.6c2.7-1.9 5.9-2.9 9.2-2.9s6.5 1 9.2 2.9L116 35.1c5.8 4 9.2 10.5 9.2 17.5v56.2c0 8.9-7.2 16.2-16.2 16.2zM64 5.2c-2.8 0-5.5.8-7.8 2.4L13.4 37.1c-5.1 3.5-8.1 9.3-8.1 15.5v56.2c0 7.6 6.2 13.8 13.8 13.8h90c7.6 0 13.8-6.2 13.8-13.8V52.6c0-6.2-3-12-8.1-15.5l-43-29.4c-2.3-1.6-5-2.5-7.8-2.5z" fill="#502D4B"/><path d="M118 98.4V38.3c-.8-.8-1.7-1.5-2.7-2.2L77.4 10H50.6L12.7 36.1c-1 .7-1.9 1.4-2.7 2.2v60.1c0 10.5 8.5 19 19 19h70c10.5 0 19-8.5 19-19z" fill="#502D4B" opacity=".2"/><path d="M114 29v69.4c0 8.3-6.7 15-15 15H29c-8.3 0-15-6.7-15-15V29c0-8.3 6.7-15 15-15h70c8.3 0 15 6.7 15 15z" fill="#FFF"/><path d="M84.2 79.9l-10.3-6.3c-3-1.8-6.4-2.8-9.9-2.8s-6.9 1-9.9 2.8l-10.3 6.3L14 59.4v39c0 8.3 6.7 15 15 15h70c8.3 0 15-6.7 15-15v-39L84.2 79.9z" fill="#502D4B" opacity=".2"/><path d="M95.3 65.6H31.7c-.7 0-1.2-.6-1.2-1.2s.6-1.2 1.2-1.2h63.6c.7 0 1.2.6 1.2 1.2s-.5 1.2-1.2 1.2zm0-24H31.7c-.7 0-1.2-.6-1.2-1.2s.6-1.2 1.2-1.2h63.6c.7 0 1.2.6 1.2 1.2s-.5 1.2-1.2 1.2zm0 11.9H31.7c-.7 0-1.2-.6-1.2-1.2S31 51 31.7 51h63.6c.7 0 1.2.6 1.2 1.2s-.5 1.3-1.2 1.3z" fill="#502D4B"/><path d="M99 114.7H29c-9 0-16.2-7.3-16.2-16.2V29c0-9 7.3-16.2 16.2-16.2h70c9 0 16.2 7.3 16.2 16.2v69.4c0 9-7.2 16.3-16.2 16.3zM29 15.2c-7.6 0-13.8 6.2-13.8 13.8v69.4c0 7.6 6.2 13.8 13.8 13.8h70c7.6 0 13.8-6.2 13.8-13.8V29c0-7.6-6.2-13.8-13.8-13.8H29z" fill="#502D4B"/><path d="M64 93.5c-4.9 0-9.6-1.5-13.6-4.2L4 57.4V109c0 8.3 6.7 15 15 15h90c8.3 0 15-6.7 15-15V57.4L77.6 89.3c-4 2.8-8.7 4.2-13.6 4.2z" fill="#F9E373"/><path d="M109 125.2H19c-9 0-16.2-7.3-16.2-16.2V57.4c0-.5.3-.9.7-1.1.4-.2.9-.2 1.3.1l46.4 31.9c3.8 2.6 8.3 4 12.9 4s9.1-1.4 12.9-4l46.4-31.9c.4-.3.9-.3 1.3-.1.4.2.7.6.7 1.1V109c-.2 9-7.4 16.2-16.4 16.2zM5.2 59.8V109c0 7.6 6.2 13.8 13.8 13.8h90c7.6 0 13.8-6.2 13.8-13.8V59.8L78.3 90.4c-4.2 2.9-9.2 4.4-14.3 4.4s-10.1-1.5-14.3-4.4L5.2 59.8z" fill="#502D4B"/><path d="M19 124h90c8.3 0 15-6.7 15-15L71.8 77C67 74.1 61 74.1 56.2 77L4 109c0 8.3 6.7 15 15 15z" fill="#F9E373"/><path d="M109 125.2H19c-9 0-16.2-7.3-16.2-16.2 0-.4.2-.8.6-1.1l52.2-32c2.6-1.6 5.5-2.4 8.5-2.4s5.9.8 8.5 2.4l52.2 32c.4.2.6.6.6 1.1-.2 9-7.4 16.2-16.4 16.2zM5.3 109.7c.4 7.3 6.4 13.1 13.7 13.1h90c7.4 0 13.4-5.8 13.7-13.1L71.2 78.1c-4.3-2.6-10-2.6-14.4 0L5.3 109.7z" fill="#502D4B"/></svg>